<svg xmlns="http://www.w3.org/2000/svg" version="1.1" xmlns:xlink="http://www.w3.org/1999/xlink" width="512" height="512"><svg xmlns="http://www.w3.org/2000/svg" fill="none" viewBox="0 0 512 512" width="512" height="512"><defs><clipPath id="SvgjsClipPath1079"><path d="m0 0 h 460 v 460 h -460 v -460 z" id="SvgjsPath1078" fill="#ffffff"></path></clipPath><clipPath id="SvgjsClipPath1077"><path d="m0 0 h 24 v 24 h -24 v -24 z" id="SvgjsPath1076" fill="#ffffff"></path></clipPath><clipPath id="SvgjsClipPath1075"><path d="m0 0 h 24 v 24 h -24 v -24 z" id="SvgjsPath1074" fill="#ffffff"></path></clipPath><clipPath id="SvgjsClipPath1073"><rect width="460" height="460" rx="88" ry="88" stroke-linejoin="round" stroke="#E08700" style="stroke-width:0;vector-effect:non-scaling-stroke;"></rect></clipPath></defs><g transform="translate(26 26)" data-asset-index="0"><g clip-path="url(#assetClipPath_VUa3EV4p)" transform="scale(1 1)" data-asset-index="0"><rect width="460" height="460" fill="#FFEDD2" rx="88" ry="88" stroke-linejoin="round" clip-path="url(#clipPath_jIzPHmyP)" id="SvgjsRect1072" stroke="#E08700" style="stroke-width:0;vector-effect:non-scaling-stroke;"></rect></g></g><g transform="translate(105 105)" data-asset-index="1"><g clip-path="url(#assetClipPath_sPwaAjmc)" transform="scale(12.625 12.625)" data-asset-index="1"><path d="M20.66,7c-0.909-1.574-2.875-2.219-4.779-1.723C15.361,3.38,13.817,2,12,2S8.639,3.38,8.119,5.277 C6.216,4.779,4.249,5.425,3.34,7c-0.908,1.574-0.485,3.601,0.897,5c-1.383,1.399-1.806,3.426-0.897,5 c0.909,1.575,2.878,2.22,4.779,1.723C8.639,20.62,10.183,22,12,22c1.818,0,3.361-1.381,3.881-3.279 c1.908,0.499,3.875-0.155,4.779-1.721c0.908-1.574,0.485-3.601-0.897-5C21.146,10.601,21.568,8.574,20.66,7z M12,15 c-1.654,0-3-1.346-3-3s1.346-3,3-3s3,1.346,3,3S13.654,15,12,15z" fill="#FF8A23" id="SvgjsPath1071"></path></g></g><g transform="translate(213 51)" data-asset-index="2"><g clip-path="url(#assetClipPath_kvMtcUp6)" transform="scale(9.833333333333334 9.833333333333334)" data-asset-index="2"><path d="M11 6.515L7.728 5.272 6.485 2 5.515 2 4.272 5.272 1 6.515 1 7.485 4.272 8.728 5.515 12 6.485 12 7.728 8.728 11 7.485zM23 12.524L18.272 10.728 16.476 6 15.524 6 13.728 10.728 9 12.524 9 13.476 13.728 15.272 15.524 20 16.476 20 18.272 15.272 23 13.476zM10 18.502L8.187 17.813 7.498 16 6.502 16 5.813 17.813 4 18.502 4 19.498 5.813 20.187 6.502 22 7.498 22 8.187 20.187 10 19.498z" fill="#1A1A1A" id="SvgjsPath1070"></path></g></g></svg><style>@media (prefers-color-scheme: light) { :root { filter: none; } }
@media (prefers-color-scheme: dark) { :root { filter: none; } }
</style></svg>